<!--?xml version="1.0" standalone="no"?-->
              <svg id="sw-js-blob-svg" viewBox="0 0 100 100" xmlns="http://www.w3.org/2000/svg" version="1.1">
                    <defs> 
                        <linearGradient id="sw-gradient" x1="0" x2="1" y1="1" y2="0">
                            <stop id="stop1" stop-color="rgba(248, 117, 55, 1)" offset="0%"></stop>
                            <stop id="stop2" stop-color="rgba(251, 168, 31, 1)" offset="100%"></stop>
                        </linearGradient>
                    </defs>
                <path fill="url(#sw-gradient)" d="M20.6,-24.2C26,-20.1,29.2,-12.9,30.4,-5.5C31.5,1.9,30.6,9.5,26.5,14.1C22.4,18.6,15.2,20.2,8,23.5C0.8,26.8,-6.4,31.9,-13,31.4C-19.7,30.9,-25.8,24.7,-30.1,17.3C-34.4,10,-36.8,1.6,-34.9,-5.6C-33,-12.8,-26.8,-18.7,-20.3,-22.6C-13.7,-26.5,-6.9,-28.4,0.4,-28.8C7.6,-29.3,15.2,-28.2,20.6,-24.2Z" width="100%" height="100%" transform="translate(50 50)" style="transition: all 0.3s ease 0s;" stroke-width="0"></path>
              </svg>