<?xml version="1.0" standalone="no"?>
<svg xmlns:xlink="http://www.w3.org/1999/xlink" id="wave" style="transform:rotate(0deg); transition: 0.3s" viewBox="0 0 1440 250" version="1.1" xmlns="http://www.w3.org/2000/svg"><defs><linearGradient id="sw-gradient-0" x1="0" x2="0" y1="1" y2="0"><stop stop-color="rgba(243, 106, 62, 1)" offset="0%"/><stop stop-color="rgba(255, 179, 11, 1)" offset="100%"/></linearGradient></defs><path style="transform:translate(0, 0px); opacity:1" fill="url(#sw-gradient-0)" d="M0,175L26.7,170.8C53.3,167,107,158,160,145.8C213.3,133,267,117,320,100C373.3,83,427,67,480,83.3C533.3,100,587,150,640,179.2C693.3,208,747,217,800,212.5C853.3,208,907,192,960,183.3C1013.3,175,1067,175,1120,179.2C1173.3,183,1227,192,1280,166.7C1333.3,142,1387,83,1440,58.3C1493.3,33,1547,42,1600,37.5C1653.3,33,1707,17,1760,45.8C1813.3,75,1867,150,1920,175C1973.3,200,2027,175,2080,141.7C2133.3,108,2187,67,2240,66.7C2293.3,67,2347,108,2400,104.2C2453.3,100,2507,50,2560,54.2C2613.3,58,2667,117,2720,145.8C2773.3,175,2827,175,2880,154.2C2933.3,133,2987,92,3040,83.3C3093.3,75,3147,100,3200,120.8C3253.3,142,3307,158,3360,154.2C3413.3,150,3467,125,3520,129.2C3573.3,133,3627,167,3680,162.5C3733.3,158,3787,117,3813,95.8L3840,75L3840,250L3813.3,250C3786.7,250,3733,250,3680,250C3626.7,250,3573,250,3520,250C3466.7,250,3413,250,3360,250C3306.7,250,3253,250,3200,250C3146.7,250,3093,250,3040,250C2986.7,250,2933,250,2880,250C2826.7,250,2773,250,2720,250C2666.7,250,2613,250,2560,250C2506.7,250,2453,250,2400,250C2346.7,250,2293,250,2240,250C2186.7,250,2133,250,2080,250C2026.7,250,1973,250,1920,250C1866.7,250,1813,250,1760,250C1706.7,250,1653,250,1600,250C1546.7,250,1493,250,1440,250C1386.7,250,1333,250,1280,250C1226.7,250,1173,250,1120,250C1066.7,250,1013,250,960,250C906.7,250,853,250,800,250C746.7,250,693,250,640,250C586.7,250,533,250,480,250C426.7,250,373,250,320,250C266.7,250,213,250,160,250C106.7,250,53,250,27,250L0,250Z"/><defs><linearGradient id="sw-gradient-1" x1="0" x2="0" y1="1" y2="0"><stop stop-color="rgba(243, 106, 62, 1)" offset="0%"/><stop stop-color="rgba(255, 179, 11, 1)" offset="100%"/></linearGradient></defs><path style="transform:translate(0, 50px); opacity:0.9" fill="url(#sw-gradient-1)" d="M0,175L26.7,183.3C53.3,192,107,208,160,204.2C213.3,200,267,175,320,170.8C373.3,167,427,183,480,183.3C533.3,183,587,167,640,133.3C693.3,100,747,50,800,29.2C853.3,8,907,17,960,37.5C1013.3,58,1067,92,1120,125C1173.3,158,1227,192,1280,179.2C1333.3,167,1387,108,1440,91.7C1493.3,75,1547,100,1600,116.7C1653.3,133,1707,142,1760,133.3C1813.3,125,1867,100,1920,112.5C1973.3,125,2027,175,2080,162.5C2133.3,150,2187,75,2240,41.7C2293.3,8,2347,17,2400,54.2C2453.3,92,2507,158,2560,162.5C2613.3,167,2667,108,2720,87.5C2773.3,67,2827,83,2880,91.7C2933.3,100,2987,100,3040,116.7C3093.3,133,3147,167,3200,166.7C3253.3,167,3307,133,3360,125C3413.3,117,3467,133,3520,120.8C3573.3,108,3627,67,3680,54.2C3733.3,42,3787,58,3813,66.7L3840,75L3840,250L3813.3,250C3786.7,250,3733,250,3680,250C3626.7,250,3573,250,3520,250C3466.7,250,3413,250,3360,250C3306.7,250,3253,250,3200,250C3146.7,250,3093,250,3040,250C2986.7,250,2933,250,2880,250C2826.7,250,2773,250,2720,250C2666.7,250,2613,250,2560,250C2506.7,250,2453,250,2400,250C2346.7,250,2293,250,2240,250C2186.7,250,2133,250,2080,250C2026.7,250,1973,250,1920,250C1866.7,250,1813,250,1760,250C1706.7,250,1653,250,1600,250C1546.7,250,1493,250,1440,250C1386.7,250,1333,250,1280,250C1226.7,250,1173,250,1120,250C1066.7,250,1013,250,960,250C906.7,250,853,250,800,250C746.7,250,693,250,640,250C586.7,250,533,250,480,250C426.7,250,373,250,320,250C266.7,250,213,250,160,250C106.7,250,53,250,27,250L0,250Z"/></svg>